<?xml version="1.0" standalone="no"?>
<!DOCTYPE svg PUBLIC "-//W3C//DTD SVG 20010904//EN"
 "http://www.w3.org/TR/2001/REC-SVG-20010904/DTD/svg10.dtd">
<svg version="1.0" xmlns="http://www.w3.org/2000/svg"
 width="1479.000000pt" height="457.000000pt" viewBox="0 0 1479.000000 457.000000"
 preserveAspectRatio="xMidYMid meet">

<g transform="translate(0.000000,457.000000) scale(0.100000,-0.100000)"
fill="#000000" stroke="none">
<path d="M1216 4175 c-45 -114 -74 -175 -84 -175 -11 0 -13 -7 -8 -27 4 -16
10 -124 13 -240 6 -213 6 -213 -16 -213 -20 0 -21 -5 -21 -82 0 -46 9 -155 21
-243 20 -158 20 -172 7 -930 l-13 -770 -447 -3 c-287 -1 -448 -6 -448 -12 0
-6 164 -10 463 -10 l463 0 13 792 c12 777 11 796 -9 943 -11 83 -20 179 -20
213 0 57 2 65 21 69 21 6 21 8 18 242 l-4 236 69 173 c38 94 73 172 76 172 3
0 38 -78 76 -172 l69 -173 -4 -237 c-3 -214 -2 -238 13 -238 14 0 16 -15 16
-102 0 -56 -7 -156 -16 -222 -15 -108 -16 -184 -5 -775 6 -361 11 -716 11
-788 l0 -133 160 0 160 0 0 264 c0 265 5 310 38 349 12 13 27 17 55 15 52 -4
76 -36 84 -111 6 -64 22 -71 36 -17 20 80 103 158 184 175 28 6 32 11 35 43 4
51 32 51 36 0 3 -32 7 -37 35 -43 83 -18 154 -83 183 -169 19 -54 34 -60 34
-12 0 40 17 95 38 119 20 23 84 23 104 0 33 -39 38 -84 38 -349 l0 -264 223 0
222 0 0 120 c0 99 3 122 17 136 14 15 22 16 43 6 15 -7 25 -20 25 -32 0 -18 6
-20 55 -20 54 0 55 1 75 39 25 50 72 86 131 101 85 21 179 -22 219 -101 20
-38 21 -39 75 -39 49 0 55 2 55 20 0 12 11 25 26 32 23 11 29 10 45 -11 16
-20 19 -40 19 -136 l0 -112 188 -6 c252 -8 402 -4 428 11 19 10 27 7 59 -18
21 -17 45 -30 53 -30 9 0 33 17 54 37 37 36 39 37 71 24 17 -8 51 -13 75 -12
25 1 52 -5 65 -14 34 -24 64 -18 108 22 47 42 45 44 85 -60 15 -38 33 -71 41
-74 26 -10 53 30 79 116 14 47 28 93 31 101 5 16 29 -29 58 -112 21 -60 49
-65 71 -13 7 19 21 52 30 72 l16 38 29 -59 c15 -33 35 -66 43 -75 14 -13 19
-13 45 6 l28 22 12 -25 c6 -14 14 -49 17 -79 9 -78 25 -87 69 -40 25 26 42 59
57 111 l22 73 23 -39 c13 -22 31 -40 38 -40 18 0 39 32 55 82 6 21 15 40 20
43 4 2 18 -23 30 -56 39 -102 67 -91 99 38 12 45 21 98 21 118 0 51 15 37 62
-59 22 -44 50 -100 62 -123 13 -23 29 -73 35 -110 21 -117 20 -115 44 -111 16
2 32 22 58 76 20 41 39 70 42 65 2 -4 12 -32 21 -60 14 -43 22 -53 40 -53 15
0 27 9 35 27 18 39 68 256 82 355 7 52 16 85 22 81 5 -3 27 -44 48 -90 22 -46
46 -86 55 -90 9 -3 27 6 44 22 17 16 32 26 34 24 3 -3 26 -43 51 -89 80 -145
111 -174 153 -144 11 7 29 40 42 73 30 82 42 90 81 56 27 -22 40 -26 78 -23
44 3 46 1 81 -44 45 -61 70 -63 105 -8 28 44 44 49 67 23 25 -29 65 -114 83
-178 20 -69 30 -85 56 -85 31 0 78 117 124 308 9 39 21 72 25 72 4 0 15 -33
25 -72 40 -168 68 -182 101 -50 12 45 24 85 27 88 3 3 11 -14 17 -37 18 -73
32 -99 50 -99 23 0 34 31 60 159 11 58 22 106 23 108 2 1 11 -34 21 -78 22
-101 34 -129 58 -129 23 0 29 17 58 155 12 61 26 114 30 118 4 5 21 -31 36
-80 26 -80 31 -88 54 -88 20 0 31 11 52 50 15 28 29 55 31 60 8 20 18 -5 43
-109 29 -118 53 -161 77 -136 8 8 25 53 38 99 36 129 39 129 83 15 21 -54 50
-162 66 -240 29 -148 42 -184 64 -184 15 0 40 27 50 54 8 24 14 18 46 -47 37
-77 61 -76 100 5 17 35 40 70 51 79 11 8 37 58 58 110 34 84 41 94 65 97 33 4
43 26 76 161 l23 94 27 -32 c21 -27 28 -30 37 -19 24 28 34 74 59 266 14 108
29 203 33 211 10 17 3 41 81 -259 103 -394 119 -444 148 -455 22 -8 49 21 68
74 18 48 44 86 44 63 0 -7 9 -21 20 -32 26 -26 52 -14 76 33 l17 32 19 -44
c10 -24 33 -61 51 -81 40 -44 48 -76 83 -365 29 -239 38 -285 60 -285 18 0 28
24 49 130 9 47 21 102 26 124 10 37 11 38 25 17 17 -24 46 -27 63 -7 7 8 23
67 37 133 36 172 53 231 78 282 30 60 29 55 75 357 42 269 58 339 82 339 7 0
32 -27 54 -60 47 -69 73 -79 104 -40 l20 27 11 -23 c5 -13 25 -103 44 -199 19
-96 51 -218 70 -271 30 -83 53 -188 121 -538 16 -85 53 -166 94 -210 36 -39
51 -39 89 0 25 26 33 29 50 20 55 -29 67 -1 113 275 22 130 44 244 49 253 7
13 10 11 21 -11 14 -31 34 -42 47 -25 28 34 44 168 83 710 12 169 26 304 29
300 4 -5 12 -75 19 -158 14 -173 35 -293 54 -313 24 -23 37 9 58 139 11 68 22
125 24 127 7 7 14 -36 40 -237 25 -196 40 -246 70 -235 8 3 25 33 37 66 20 55
22 58 31 37 5 -13 17 -105 28 -204 10 -99 30 -292 45 -430 14 -137 30 -257 35
-267 16 -30 39 -20 58 25 l18 42 7 -50 c3 -27 17 -171 31 -320 14 -148 28
-285 31 -303 5 -34 28 -52 44 -36 5 5 20 182 35 394 53 795 63 895 95 960 29
58 47 159 85 475 19 165 39 314 44 330 7 27 12 18 48 -95 49 -150 53 -168 98
-485 20 -137 44 -279 55 -315 42 -147 51 -203 89 -625 23 -242 44 -456 48
-475 10 -43 43 -49 55 -10 4 14 51 475 103 1025 106 1118 105 1108 113 1101 3
-3 42 -504 87 -1112 70 -932 85 -1108 99 -1122 14 -14 18 -15 31 -1 12 12 24
201 67 1119 31 654 56 1089 60 1065 4 -22 23 -413 43 -870 20 -456 38 -849 41
-872 7 -50 25 -70 44 -48 13 16 28 251 55 880 16 380 24 519 31 500 2 -6 17
-189 33 -408 29 -406 35 -439 69 -418 13 8 29 97 62 344 7 49 16 85 20 80 4
-4 24 -58 44 -119 40 -123 58 -154 86 -154 30 0 49 38 77 155 l27 106 18 -47
c20 -51 52 -102 76 -121 23 -19 58 -16 102 9 36 21 41 22 72 8 18 -7 57 -13
86 -12 28 1 78 3 110 5 31 1 94 -2 140 -6 69 -7 82 -6 82 6 0 20 -247 45 -278
28 -29 -15 -93 -13 -116 4 -28 21 -69 19 -111 -6 -58 -34 -78 -22 -124 74 -21
45 -41 90 -44 100 -7 19 -22 22 -32 6 -4 -5 -16 -53 -26 -105 -23 -111 -47
-176 -63 -171 -6 2 -31 63 -56 135 -52 151 -63 167 -89 135 -13 -15 -24 -70
-41 -190 -21 -158 -39 -234 -40 -173 -1 93 -53 749 -60 768 -13 30 -38 28 -51
-5 -6 -16 -15 -127 -20 -248 -5 -121 -18 -399 -29 -618 -11 -219 -20 -406 -20
-414 0 -9 -2 -14 -5 -11 -3 2 -23 403 -45 889 -22 486 -44 894 -50 907 -12 27
-37 29 -45 2 -4 -11 -30 -520 -59 -1130 -29 -611 -56 -1113 -59 -1117 -4 -3
-7 7 -7 23 0 100 -161 2168 -170 2185 -15 26 -41 21 -51 -11 -5 -14 -51 -473
-104 -1020 -99 -1041 -105 -1094 -111 -1088 -2 3 -22 200 -44 439 -41 449 -46
483 -85 609 -13 41 -42 206 -65 365 -41 284 -60 368 -117 530 -29 84 -52 104
-73 66 -6 -12 -24 -130 -40 -263 -48 -396 -60 -469 -86 -543 -36 -101 -42
-128 -53 -245 -10 -99 -70 -957 -72 -1031 l-1 -34 -9 30 c-5 17 -20 158 -35
315 -18 197 -30 292 -40 308 -20 30 -36 17 -54 -40 l-13 -43 -8 42 c-4 23 -24
203 -43 400 -39 384 -50 459 -73 485 -23 25 -40 12 -59 -45 -30 -93 -34 -86
-54 88 -18 154 -42 309 -52 328 -14 27 -35 20 -47 -15 -9 -29 -41 -208 -41
-232 0 -5 -2 -7 -5 -4 -10 10 -25 112 -40 284 -12 129 -20 183 -31 194 -14 13
-17 13 -29 -3 -18 -24 -21 -51 -50 -452 -25 -333 -39 -487 -51 -553 l-6 -33
-23 21 c-31 29 -57 22 -67 -18 -5 -18 -27 -137 -48 -264 -22 -127 -44 -236
-50 -242 -7 -7 -14 -6 -22 2 -20 20 -40 14 -76 -20 l-33 -33 -21 25 c-45 54
-77 145 -103 290 -38 213 -72 361 -96 427 -33 88 -65 215 -89 350 -31 167 -66
219 -106 158 -9 -14 -20 -25 -24 -25 -5 0 -22 22 -39 50 -51 83 -96 98 -125
41 -20 -39 -33 -104 -66 -331 -39 -265 -47 -305 -77 -364 -14 -28 -40 -118
-59 -200 -45 -202 -43 -196 -54 -196 -5 0 -11 9 -15 19 -7 24 -33 35 -50 21
-7 -6 -22 -59 -34 -118 -25 -118 -30 -137 -35 -131 -3 2 -18 112 -35 244 -36
277 -42 304 -80 348 -16 17 -40 56 -55 85 -14 28 -33 52 -42 52 -8 0 -24 -16
-35 -35 -25 -42 -32 -43 -53 -10 -30 46 -61 25 -93 -60 -10 -27 -25 -50 -32
-50 -19 0 -30 35 -123 385 -44 168 -84 313 -89 323 -15 27 -39 20 -53 -15 -8
-18 -25 -122 -40 -232 -14 -109 -30 -205 -34 -213 -7 -11 -12 -10 -27 7 -39
43 -53 26 -85 -100 -27 -110 -36 -130 -58 -130 -28 0 -46 -26 -76 -109 -15
-41 -40 -89 -56 -108 -17 -19 -42 -57 -56 -85 -14 -28 -29 -47 -33 -42 -5 5
-16 29 -25 54 -28 72 -55 79 -88 24 -20 -34 -22 -35 -29 -16 -5 12 -18 72 -29
134 -25 133 -31 157 -73 263 -37 94 -44 105 -67 105 -19 0 -47 -56 -74 -153
-9 -31 -18 -57 -20 -57 -2 0 -13 42 -25 93 -28 115 -39 145 -61 157 -22 12
-41 -8 -70 -74 -13 -31 -24 -46 -30 -40 -5 5 -22 48 -37 94 -46 139 -74 119
-113 -77 -13 -62 -26 -110 -31 -108 -4 3 -15 40 -24 83 -20 97 -31 122 -49
122 -23 0 -32 -24 -56 -145 -12 -60 -25 -114 -29 -118 -4 -4 -13 17 -20 48
-13 59 -33 87 -55 79 -18 -7 -32 -41 -47 -114 -14 -71 -19 -67 -44 40 -21 89
-31 110 -50 110 -24 0 -42 -39 -74 -162 -36 -135 -69 -228 -81 -228 -4 0 -18
33 -30 72 -53 175 -128 252 -177 183 -10 -14 -25 -36 -34 -47 l-16 -22 -16 30
c-8 16 -27 42 -41 57 -24 25 -30 28 -71 22 -39 -6 -48 -4 -76 19 -17 14 -37
26 -44 26 -23 0 -51 -37 -71 -96 -34 -102 -49 -94 -144 72 -33 59 -63 100 -74
102 -10 2 -30 -8 -45 -22 l-28 -26 -44 87 c-67 133 -100 136 -114 10 -8 -77
-72 -358 -84 -370 -5 -5 -16 13 -26 42 -9 28 -24 58 -32 67 -14 13 -17 13 -34
-2 -11 -9 -19 -21 -19 -26 0 -5 -12 -35 -27 -65 l-26 -57 -17 85 c-14 64 -34
116 -88 219 -39 74 -78 139 -87 145 -23 14 -45 -19 -45 -69 0 -42 -27 -166
-40 -179 -4 -5 -17 17 -30 47 -37 93 -54 94 -94 3 -14 -31 -28 -57 -30 -57 -2
0 -14 16 -25 36 -35 58 -58 43 -86 -56 -8 -30 -25 -71 -37 -90 l-22 -35 -13
64 c-21 104 -51 133 -96 94 -11 -10 -22 -14 -24 -8 -34 82 -60 120 -82 120
-19 0 -28 -11 -49 -62 -14 -35 -29 -63 -33 -63 -4 0 -12 22 -19 48 -16 70 -45
114 -72 110 -13 -2 -24 -13 -29 -28 -4 -14 -16 -56 -28 -95 -11 -38 -26 -78
-34 -89 -12 -17 -15 -13 -37 45 -44 121 -61 131 -122 72 -37 -36 -39 -37 -71
-23 -17 7 -56 14 -84 15 -29 0 -58 6 -65 13 -23 23 -61 13 -100 -25 l-37 -36
-27 19 c-58 41 -66 43 -98 30 -22 -9 -109 -12 -306 -12 l-275 1 -3 83 c-2 53
1 89 9 98 9 11 6 21 -15 49 -42 54 -98 56 -126 5 -20 -37 -61 -26 -100 27 -46
62 -112 96 -185 96 -73 0 -139 -34 -185 -96 -42 -56 -69 -61 -110 -17 -37 40
-65 38 -106 -6 -28 -29 -32 -39 -24 -55 6 -10 9 -56 8 -102 l-3 -82 -190 0
-190 0 -3 265 c-2 284 -5 301 -56 349 -51 48 -140 22 -167 -48 -9 -23 -10 -23
-49 21 -34 40 -93 77 -142 92 -11 3 -18 15 -18 29 0 13 -7 32 -15 43 -8 10
-15 34 -15 52 0 26 -4 33 -17 30 -12 -2 -19 -14 -21 -33 -2 -17 -8 -36 -14
-43 -6 -6 -13 -26 -17 -44 -5 -26 -14 -34 -51 -46 -28 -10 -64 -35 -97 -68
l-53 -52 -15 32 c-31 65 -114 80 -166 30 -16 -15 -29 -36 -29 -46 0 -10 -4
-18 -10 -18 -6 0 -11 -102 -12 -272 l-3 -273 -123 -3 c-93 -2 -123 0 -126 10
-2 7 -9 359 -16 783 -11 753 -11 773 9 920 12 83 21 185 21 228 0 72 -2 79
-21 84 -21 6 -21 8 -16 217 3 116 9 223 13 239 5 21 3 27 -9 27 -11 0 -36 54
-84 175 -63 161 -70 174 -93 175 -23 0 -30 -13 -94 -175z"/>
<path d="M1264 3010 c-11 -4 -33 -22 -47 -40 -64 -75 -6 -200 93 -200 36 0 85
28 103 59 59 100 -43 224 -149 181z m90 -31 c14 -7 32 -27 41 -46 31 -64 -14
-133 -87 -133 -67 0 -110 60 -88 125 18 55 78 79 134 54z"/>
<path d="M1300 2924 l0 -45 43 3 c49 4 56 22 10 26 -29 3 -33 7 -33 33 0 16
-4 29 -10 29 -5 0 -10 -21 -10 -46z"/>
</g>
</svg>
